<?xml version="1.0" encoding="UTF-8"?>
<svg xmlns="http://www.w3.org/2000/svg" width="1200" height="675" viewBox="0 0 1200 675">
  <defs>
    <filter id="elev2" x="-40%" y="-40%" width="180%" height="180%">
      <feDropShadow dx="0" dy="3" stdDeviation="6" flood-color="#202124" flood-opacity="0.18"/>
    </filter>
    <style type="text/css"><![CDATA[
      .title { font-family: Roboto, Arial, sans-serif; font-size: 32px; font-weight: 700; fill: #202124; }
      .sub { font-family: Roboto, Arial, sans-serif; font-size: 16px; fill: #5F6368; }
      .h2 { font-family: Roboto, Arial, sans-serif; font-size: 20px; font-weight: 700; fill: #202124; }
      .body { font-family: Roboto, Arial, sans-serif; font-size: 15px; fill: #5F6368; }
      .body-ink { font-family: Roboto, Arial, sans-serif; font-size: 15px; fill: #202124; }
      .num { font-family: Roboto, Arial, sans-serif; font-size: 16px; font-weight: 700; fill: #FFF; }
      .num-dark { font-family: Roboto, Arial, sans-serif; font-size: 16px; font-weight: 700; fill: #202124; }
      .on-dark { fill: #FFF; }
    ]]></style>
  </defs>
  <rect width="1200" height="675" fill="#F8F9FA"/>
<text x="48" y="48" class="title">Multi-Agent Deal Sourcing</text>
<rect x="360" y="100" width="480" height="90" rx="16" fill="#4285F4" filter="url(#elev2)"/>
<text x="600" y="155" text-anchor="middle" class="h2 on-dark">Orchestrator Agent</text>
<line x1="600" y1="190" x2="600" y2="250" stroke="#4285F4" stroke-width="3"/>
<line x1="190" y1="250" x2="1010" y2="250" stroke="#4285F4" stroke-width="3"/>
<rect x="48" y="270" width="300" height="200" rx="16" fill="#E6F4EA" filter="url(#elev2)"/><circle cx="90" cy="315" r="20" fill="#34A853"/><text x="90" y="321" text-anchor="middle" class="num">1</text><text x="120" y="322" class="h2">News Monitor</text>
<rect x="450" y="270" width="300" height="200" rx="16" fill="#FEF7E0" filter="url(#elev2)"/><circle cx="492" cy="315" r="20" fill="#FBBC04"/><text x="492" y="321" text-anchor="middle" class="num-dark">2</text><text x="522" y="322" class="h2">Restructuring Scout</text>
<rect x="852" y="270" width="300" height="200" rx="16" fill="#FCE8E6" filter="url(#elev2)"/><circle cx="894" cy="315" r="20" fill="#EA4335"/><text x="894" y="321" text-anchor="middle" class="num">3</text><text x="924" y="322" class="h2">Briefing Compiler</text>
<rect x="48" y="520" width="1104" height="110" rx="16" fill="#FFFFFF" filter="url(#elev2)"/><text x="80" y="585" class="body-ink">Shared MCP tools · human approval before outreach · clear ownership per hop</text>
</svg>