<?xml version="1.0" encoding="UTF-8"?>
<svg xmlns="http://www.w3.org/2000/svg" width="1200" height="675" viewBox="0 0 1200 675">
  <defs>
    <filter id="elev2" x="-40%" y="-40%" width="180%" height="180%">
      <feDropShadow dx="0" dy="3" stdDeviation="6" flood-color="#202124" flood-opacity="0.18"/>
    </filter>
    <style type="text/css"><![CDATA[
      .title { font-family: Roboto, Arial, sans-serif; font-size: 32px; font-weight: 700; fill: #202124; }
      .sub { font-family: Roboto, Arial, sans-serif; font-size: 16px; fill: #5F6368; }
      .h2 { font-family: Roboto, Arial, sans-serif; font-size: 20px; font-weight: 700; fill: #202124; }
      .body { font-family: Roboto, Arial, sans-serif; font-size: 15px; fill: #5F6368; }
      .body-ink { font-family: Roboto, Arial, sans-serif; font-size: 15px; fill: #202124; }
      .num { font-family: Roboto, Arial, sans-serif; font-size: 16px; font-weight: 700; fill: #FFF; }
      .num-dark { font-family: Roboto, Arial, sans-serif; font-size: 16px; font-weight: 700; fill: #202124; }
      .on-dark { fill: #FFF; }
    ]]></style>
  </defs>
  <rect width="1200" height="675" fill="#F8F9FA"/>
<text x="48" y="48" class="title">Anatomy of an Agent</text>
<rect x="300" y="110" width="600" height="90" rx="16" fill="#FFFFFF" filter="url(#elev2)"/><text x="320" y="165" class="h2">Goal / Instructions / Policy</text>
<rect x="300" y="230" width="600" height="100" rx="16" fill="#E8F0FE" filter="url(#elev2)"/><text x="320" y="275" class="h2">Reasoning loop</text><text x="320" y="305" class="body-ink">plan → act → observe → update</text>
<rect x="48" y="380" width="340" height="230" rx="16" fill="#FFFFFF" filter="url(#elev2)"/>
<rect x="48" y="380" width="340" height="56" rx="16" fill="#34A853"/>
<rect x="48" y="408" width="340" height="28" fill="#34A853"/>
<text x="218" y="416" text-anchor="middle" class="h2 on-dark">Memory</text>
<text x="80" y="490" class="body-ink">Session vs durable</text>
<rect x="430" y="380" width="340" height="230" rx="16" fill="#FFFFFF" filter="url(#elev2)"/>
<rect x="430" y="380" width="340" height="56" rx="16" fill="#FBBC04"/>
<rect x="430" y="408" width="340" height="28" fill="#FBBC04"/>
<text x="600" y="416" text-anchor="middle" class="h2">Tools and Skills</text>
<text x="462" y="490" class="body-ink">APIs, MCP, RAG, procedures</text>
<rect x="812" y="380" width="340" height="230" rx="16" fill="#FFFFFF" filter="url(#elev2)"/>
<rect x="812" y="380" width="340" height="56" rx="16" fill="#EA4335"/>
<rect x="812" y="408" width="340" height="28" fill="#EA4335"/>
<text x="982" y="416" text-anchor="middle" class="h2 on-dark">Guardrails</text>
<text x="844" y="490" class="body-ink">AuthZ, HITL, evals, logs</text>
</svg>